<?xml version="1.0" encoding="UTF-8" standalone="no"?>
<!-- Created with Inkscape (http://www.inkscape.org/) -->

<svg
   width="200mm"
   height="200mm"
   viewBox="0 0 200 200"
   version="1.1"
   id="svg1"
   xmlns="http://www.w3.org/2000/svg"
   xmlns:svg="http://www.w3.org/2000/svg">
  <defs
     id="defs1" />
  <g
     id="layer1">
    <g
       id="g5"
       transform="translate(-1.1175872e-7,-14.596276)">
      <path
         id="rect5"
         style="fill:#ffffff;stroke-width:0.236162"
         d="m 69.824679,139.34343 v 0.0103 l -46.381665,0.0155 -2.633948,22.92073 v 11.3565 H 36.301143 V 162.29 h 15.492078 v 11.3565 H 67.285299 V 162.29 h 2.53938 12.952181 v 11.3565 H 98.268937 V 162.29 h 15.492073 v 11.3565 h 15.49208 V 162.29 h 6.45491 8.81341 l 5.21415,-22.92073 H 135.708 v -0.0248 H 95.05518 Z m 59.428411,34.30307 v 11.35651 h 15.49208 V 173.6465 Z m -15.49208,0 H 98.268937 v 11.35651 h 15.492073 z m -30.98415,0 H 67.285299 v 11.35651 H 82.77686 Z m -30.983639,0 H 36.301143 v 11.35651 h 15.492078 z" />
      <path
         id="rect1"
         style="fill:#ff00ff;stroke-width:0.264583"
         d="M 110.19896,29.593026 30.511316,99.908114 23.443014,124.77223 h 71.604931 l -6.513297,22.80481 h 38.359932 l 6.48798,-22.80481 h 16.353 l 5.38624,-19.13165 h 4.79144 V 84.040348 h -14.94276 l 15.49001,-54.447322 h -24.39334 z m 3.38997,29.4566 h 0.11111 L 101.86717,100.54167 H 67.14939 l 0.110587,-0.15813 z m 27.26552,39.45754 v 2.034504 h -0.57877 z"
         transform="translate(1.1175872e-7,14.596276)" />
      <path
         style="font-style:italic;font-weight:900;font-size:95.459px;font-family:Inter;-inkscape-font-specification:'Inter Heavy Italic';letter-spacing:-9.61054px;display:inline;fill:#ffffff;stroke-width:0.497181"
         d="m 34.990943,135.84374 c -5.717597,0 -10.782641,-1.11866 -15.195134,-3.35598 -4.381419,-2.23732 -7.830621,-5.51562 -10.3476065,-9.83489 -2.4859115,-4.31927 -3.7288672,-9.57075 -3.7288672,-15.75446 0,-5.74867 0.9166799,-11.1866 2.7500396,-16.313793 1.8333591,-5.158266 4.4591031,-9.710591 7.8772321,-13.656976 3.418128,-3.977458 7.535419,-7.100384 12.351872,-9.368779 4.847527,-2.268394 10.269922,-3.402591 16.267183,-3.402591 4.443567,0 8.467636,0.637015 12.072208,1.911045 3.604571,1.242955 6.680887,3.060778 9.228946,5.453468 2.209212,1.624828 7.025604,8.372523 6.947123,10.775899 l -18.586181,10.92795 c -0.03107,-1.646916 -0.790499,-4.877336 -1.225534,-6.18244 -0.403961,-1.305103 -1.025438,-2.408226 -1.864433,-3.309369 -0.807921,-0.901143 -1.802286,-1.584769 -2.983094,-2.050877 -1.180808,-0.497183 -2.548059,-0.745774 -4.101754,-0.745774 -3.355981,0 -6.245853,0.792384 -8.669616,2.377153 -2.423764,1.553695 -4.42803,3.604572 -6.012798,6.152631 -1.584769,2.548059 -2.765577,5.34471 -3.542424,8.389951 -0.745773,3.014172 -1.11866,5.981722 -1.11866,8.902672 0,2.67235 0.40396,4.92521 1.211881,6.75857 0.838995,1.83336 2.081951,3.21615 3.728868,4.14837 1.646916,0.93221 3.71333,1.39832 6.199241,1.39832 1.771212,0 3.433665,-0.23305 4.98736,-0.69916 1.584769,-0.46611 3.014168,-1.14973 4.288197,-2.05088 1.305104,-0.93221 2.439301,-2.03534 3.402592,-3.30937 0.963291,-1.3051 1.740138,-2.76557 2.330542,-4.38142 l 15.65253,-1.95765 c 0.292693,4.11948 1.018613,9.78827 -1.249781,13.14425 -2.23732,3.32491 -4.925212,6.18371 -8.063675,8.5764 -3.107389,2.39269 -6.572128,4.24158 -10.394217,5.54669 -3.822089,1.27403 -7.892769,1.91104 -12.21204,1.91104 z m 29.495949,-14.54258 2.423764,-14.6358 35.144574,-41.390429 h 12.25865 l -2.88987,17.339233 -10.67564,24.424056 h -16.45187 16.45187 25.91738 l -2.33054,14.26292 z m 31.695371,13.42392 2.983094,-17.89856 1.025443,-6.4323 7.50434,-45.119289 h 18.17823 l -11.51288,69.450149 z m 23.436547,0 8.1569,-49.221044 h 18.085 l -1.49155,8.949281 h 0.0932 c 1.46047,-3.324907 3.24722,-5.639912 5.36024,-6.945015 2.11303,-1.336177 4.86307,-2.004266 8.25012,-2.004266 h 2.42377 2.23732 l -2.47038,14.915464 h -3.0297 -3.77548 c -1.92658,0 -3.68226,0.43504 -5.26703,1.30511 -1.55369,0.87007 -2.8588,2.11302 -3.91531,3.72887 -1.02543,1.58477 -1.72459,3.48027 -2.09748,5.68652 l -3.91532,23.58508 z m 31.54683,0 8.1569,-49.221044 h 18.085 l -1.49155,8.949281 h 0.0932 c 1.46047,-3.324907 3.24722,-5.639912 5.36024,-6.945015 2.11303,-1.336177 4.86307,-2.004266 8.25012,-2.004266 h 2.42376 2.23732 l -2.47037,14.915464 h -3.0297 -3.77548 c -1.92658,0 -3.68226,0.43504 -5.26703,1.30511 -1.55369,0.87007 -2.8588,2.11302 -3.91531,3.72887 -1.02544,1.58477 -1.7246,3.48027 -2.09749,5.68652 l -3.91531,23.58508 z"
         id="text1"
         aria-label="C4rr" />
    </g>
  </g>
</svg>
