<svg width="118" height="106" viewBox="0 0 118 106" fill="none" xmlns="http://www.w3.org/2000/svg">
<path d="M85.7766 48.2036L62.9914 47.819C60.6446 47.7798 58.5881 46.2335 57.9053 43.9887L51.2337 22.2003C49.6954 17.1848 42.6392 17.0592 40.9282 22.0276L33.5188 43.5806C32.7575 45.8018 30.654 47.2774 28.3072 47.2382L5.5219 46.8536C0.271009 46.7672 -2.02088 53.4388 2.17042 56.6019L20.3798 70.306C22.2557 71.7188 23.0092 74.1755 22.2479 76.3967L14.8385 97.9497C13.1353 102.91 18.7708 107.156 23.072 104.15L41.7288 91.0663C43.6517 89.7163 46.2183 89.7634 48.0942 91.1762L66.3036 104.88C70.4949 108.036 76.2795 103.986 74.7411 98.9622L68.0696 77.1738C67.3789 74.929 68.2187 72.4958 70.1417 71.1537L88.7984 58.0696C93.0996 55.0478 91.0275 48.2899 85.7766 48.2036Z" fill="black"/>
<path d="M96.4668 14.0689L86.3731 13.8962C85.3292 13.8805 84.4266 13.1898 84.1205 12.2008L81.1615 2.54673C80.4786 0.325498 77.3548 0.270527 76.5934 2.46821L73.3126 12.0203C72.9751 13.0014 72.0411 13.6607 71.005 13.6372L60.9114 13.4645C58.5881 13.4252 57.5678 16.3843 59.4279 17.7814L67.4966 23.8564C68.3286 24.4843 68.6582 25.5674 68.3207 26.5564L65.0399 36.1085C64.2864 38.3062 66.7823 40.1899 68.6896 38.8556L76.9623 33.0553C77.81 32.4588 78.9559 32.4745 79.7879 33.1024L87.8566 39.1774C89.7168 40.5745 92.2755 38.7771 91.5926 36.5559L88.6336 26.9018C88.3275 25.9049 88.6964 24.8297 89.5519 24.2332L97.8246 18.4328C99.7083 17.1064 98.79 14.1081 96.4668 14.0689Z" fill="black"/>
<path d="M116.411 28.2753L111.741 28.1968C111.262 28.189 110.838 27.875 110.697 27.4119L109.331 22.9459C109.017 21.9177 107.565 21.8942 107.22 22.9067L105.705 27.3256C105.548 27.7808 105.116 28.0869 104.637 28.0712L99.9674 27.9927C98.8921 27.977 98.4212 29.3427 99.2846 29.9863L103.013 32.7962C103.397 33.0867 103.554 33.589 103.397 34.0442L101.883 38.4631C101.529 39.4835 102.691 40.3547 103.57 39.7347L107.392 37.0503C107.785 36.7756 108.311 36.7835 108.695 37.0739L112.424 39.8838C113.287 40.5274 114.472 39.7032 114.15 38.675L112.785 34.209C112.643 33.746 112.816 33.2515 113.208 32.9768L117.031 30.2925C117.91 29.6802 117.486 28.2988 116.411 28.2753Z" fill="black"/>
</svg>
