<svg width="191" height="79" viewBox="0 0 191 79" fill="none" xmlns="http://www.w3.org/2000/svg">
<path d="M189.009 38.5845L143.116 36.6001C138.953 28.5353 122.365 22.4803 101.304 21.5864L97.602 4.70229C97.1283 2.54661 94.0393 2.62271 93.6792 4.80376L90.8934 21.561C70.0156 22.3725 53.4524 28.2436 48.8725 36.1372L2.69509 38.5909C0.168286 38.724 0.168286 42.4648 2.69509 42.598L48.8725 45.0516C53.4587 52.9389 70.0219 58.8163 90.8934 59.6279L93.6792 76.3852C94.0393 78.5599 97.1283 78.6422 97.602 76.4865L101.304 59.6025C122.365 58.7022 138.953 52.6473 143.116 44.5888L189.009 42.6043C191.561 42.4838 191.561 38.6987 189.009 38.5845ZM139.383 36.4416L105.77 34.9897C104.867 34.9516 104.096 34.3049 103.906 33.4173L101.992 24.6931C121.045 25.6061 134.778 30.7354 139.383 36.4416ZM90.388 24.655L89.0993 32.4282C88.9477 33.3539 88.1707 34.0513 87.2358 34.102L52.7954 35.928C57.8427 30.3676 71.576 25.4602 90.388 24.655ZM52.7891 45.2545L87.2295 47.0805C88.1645 47.1312 88.9414 47.8286 89.093 48.7543L90.3817 56.5275C71.5759 55.7223 57.8364 50.8149 52.7891 45.2545ZM101.986 56.4957L103.9 47.7716C104.096 46.884 104.86 46.2372 105.764 46.1992L139.383 44.7473C134.784 50.4472 121.045 55.5764 101.986 56.4957Z" fill="black"/>
<path d="M110.091 14.9354L140.981 16.5775C141.322 16.5966 141.606 16.8501 141.663 17.1862L143.337 27.2799C143.47 28.0788 144.601 28.1041 144.771 27.318L147.071 16.8248C147.14 16.5015 147.424 16.2669 147.753 16.2478L178.176 14.9291C179.111 14.891 179.111 13.5025 178.176 13.4645L147.753 12.1457C147.424 12.133 147.14 11.8984 147.071 11.5687L144.771 1.07567C144.601 0.289475 143.47 0.314795 143.337 1.11367L141.663 11.2074C141.606 11.5434 141.322 11.8033 140.981 11.816L110.091 13.4582C109.162 13.5216 109.162 14.8847 110.091 14.9354Z" fill="black"/>
<path d="M73.5026 65.3912L52.7322 64.491C52.5048 64.4783 52.3153 64.3198 52.2647 64.0979L50.6918 56.9334C50.5718 56.3944 49.8012 56.4135 49.7127 56.9587L48.5693 63.8506C48.5314 64.0852 48.3356 64.2563 48.1018 64.269L27.0093 65.3912C26.3776 65.4229 26.3776 66.355 27.0093 66.393L48.1018 67.5152C48.3356 67.5279 48.5314 67.6991 48.5693 67.9337L49.7127 74.8255C49.8012 75.3708 50.5718 75.3898 50.6918 74.8509L52.2647 67.6864C52.3153 67.4645 52.5048 67.306 52.7322 67.2933L73.5026 66.393C74.1406 66.3613 74.1406 65.4166 73.5026 65.3912Z" fill="black"/>
</svg>
