<svg xmlns="http://www.w3.org/2000/svg" width="169" height="170" fill="none" viewBox="0 0 169 170">
  <path fill="#999" d="m120.97 91.083 47.573-6.092L120.97 78.9c-2.576-15.585-14.86-27.914-30.387-30.5L84.514.65 78.445 48.4C62.92 50.986 50.642 63.315 48.06 78.9L.486 84.99l47.573 6.092c2.576 15.584 14.86 27.906 30.386 30.492l6.07 47.75 6.068-47.75c15.534-2.586 27.811-14.908 30.387-30.492Zm-3.5-12.63L94.027 75.45l-2.992-23.536c13.311 2.641 23.81 13.18 26.435 26.54Zm-39.462-26.54-2.993 23.53-23.443 3.003c2.625-13.354 13.124-23.892 26.436-26.533ZM51.565 91.529l23.443 3.004 2.993 23.529c-13.305-2.634-23.804-13.179-26.436-26.533Zm39.47 26.533 2.992-23.53 23.443-3.003c-2.625 13.354-13.124 23.899-26.435 26.533Z"/>
</svg>
