<svg width="273" height="272" viewBox="0 0 273 272" fill="none" xmlns="http://www.w3.org/2000/svg">
<rect x="0.5" y="0.5" width="272" height="271" fill="#999999"/>
<rect x="0.5" y="0.5" width="272" height="271" stroke="black"/>
<path d="M126.098 117.375H146.803C148.324 117.375 149.471 115.981 149.173 114.495L138.82 63.1744C138.3 60.5996 134.608 60.5996 134.088 63.1744L123.735 114.495C123.429 115.981 124.576 117.375 126.098 117.375Z" fill="black"/>
<path d="M108.176 145.34L114.576 125.716C115.05 124.269 114.071 122.761 112.557 122.586L60.3669 116.537C57.752 116.232 56.6051 119.737 58.9065 121.024L104.697 146.696C106.02 147.442 107.702 146.787 108.176 145.34Z" fill="black"/>
<path d="M129.332 170.974L112.58 158.846C111.349 157.955 109.606 158.412 108.964 159.791L87.066 207.371C85.9651 209.756 88.9546 211.927 90.8966 210.144L129.554 174.683C130.662 173.655 130.563 171.865 129.332 170.974Z" fill="black"/>
<path d="M163.945 159.783C163.31 158.404 161.567 157.947 160.328 158.839L143.576 170.966C142.345 171.857 142.238 173.655 143.362 174.684L182.019 210.144C183.961 211.927 186.951 209.764 185.85 207.372L163.945 159.783Z" fill="black"/>
<path d="M212.541 116.537L160.351 122.586C158.837 122.761 157.866 124.277 158.332 125.716L164.732 145.34C165.206 146.787 166.881 147.435 168.211 146.696L214.001 121.024C216.303 119.737 215.164 116.232 212.541 116.537Z" fill="black"/>
</svg>
